# xmcd CD database file
#
# Track frame offsets:
#	150
#	22131
#	35335
#	48539
#	68343
#	80346
#	94676
#	117478
#	133307
#	149510
#	177639
#	198342
#	213270
#	225498
#	236225
#	250630
#	265260
#	281163
#	295042
#	305620
#	324074
#	339225
#
# Disc length: 4753 seconds
#
# Revision: 0
# Processed by: cddbd v1.5.2PL0 Copyright (c) Steve Scherf et al.
# Submitted via: CDex 1.51
#
DISCID=45128f16
DTITLE=Hugo Pena e Gabriel - Robin Hood da Paixão
DYEAR=2008
DGENRE=Country
TTITLE0=01 - Morro de saudade
TTITLE1=02 - Bandidaça
TTITLE2=03 - Mala Pronta
TTITLE3=04 - Por enquanto Adeus
TTITLE4=05 - Tadim Tadim
TTITLE5=06 - Recado Meu
TTITLE6=07 - Parece castigo
TTITLE7=08 - Par lá de Bagdá
TTITLE8=09 - Pout Porri de viola
TTITLE9=10 - Sinto Falta desse amor
TTITLE10=11 - Vou te amar
TTITLE11=12 - Meu calor
TTITLE12=13 - Robin Hood da paixão
TTITLE13=14 - Abuso de mulher
TTITLE14=15 - Coisas esotéricas
TTITLE15=16 - Fora do eixo
TTITLE16=17 - Amanhã vazio
TTITLE17=18 - Ela é violenta
TTITLE18=19 - Pára tudo
TTITLE19=20 - Faz de conta
TTITLE20=21 - Homem ideal
TTITLE21=22 - Fica do meu lado
EXTD=YEAR: 2008
EXTT0=
EXTT1=
EXTT2=
EXTT3=
EXTT4=
EXTT5=
EXTT6=
EXTT7=
EXTT8=
EXTT9=
EXTT10=
EXTT11=
EXTT12=
EXTT13=
EXTT14=
EXTT15=
EXTT16=
EXTT17=
EXTT18=
EXTT19=
EXTT20=
EXTT21=
PLAYORDER=
